# xmcd
#
# Track frame offsets:
# 150
# 24248
# 39340
# 51992
# 67789
# 81612
# 98877
# 112819
# 130548
# 146705
#
# Disc length: 2125 seconds
#
#
# Revision: 4
# Processed by: cddbd v1.4PL0 Copyright (c) Steve Scherf et al.
# Submitted via: FreeRIP 2.00 
#
DISCID=7c084b0a
DTITLE=Dwight Yoakam - Just Lookin' For A Hit
DYEAR=1989
DGENRE=Country
TTITLE0=Long White Cadillac
TTITLE1=Little Ways
TTITLE2=Honky Tonk Man
TTITLE3=I Got You
TTITLE4=Little Sister
TTITLE5=I Sang Dixie
TTITLE6=Guitars, Cadillacs
TTITLE7=Sin City
TTITLE8=Please, Please Baby
TTITLE9=Streets Of Bakersfield
EXTD=Warner Brothers
EXTT0=
EXTT1=
EXTT2=
EXTT3=
EXTT4=
EXTT5=
EXTT6=
EXTT7=
EXTT8=
EXTT9=
PLAYORDER=
